<svg id="Layer_1" data-name="Layer 1" xmlns="http://www.w3.org/2000/svg" viewBox="0 0 419.53 297.64">
    <defs>
        <style>
            .cls-1{fill:transparent}
            .cls-2{fill:#fff;}
            .cls-2{stroke:rgb(198, 142, 93);stroke-miterlimit:10;stroke-width:8px;}
            .cls-3,.cls-4{fill:rgb(198, 142, 93);}
            .cls-4{font-size:22.8px;font-family:Futura-Light;font-weight:300;}
        </style>
    </defs>
    <rect class="cls-1" width="419.53" height="297.64"/>
    <circle class="cls-2" cx="211.9" cy="151.67" r="138.06"/>
    <path class="cls-3" d="M133.59,224.43a49.86,49.86,0,0,1,18.94,3.37c4.75,1.76,9.43,3.59,13.86,5.55,15.15,6.71,30,4,40.76-1.26a76.6,76.6,0,0,1,21.56-6.83c10.32-1.66,20-.95,28.65,2.31,5.22,2,10.34,4,15.29,6.08,13.68,5.84,27.05,4,38.15-.66.57-.24,1.07-.52,1.62-.76a8.88,8.88,0,0,1,7.88-.1c2.64,1.33,2,2.89-.63,3.85-5.35,1.94-10.72,4.05-16.75,5.3a59.45,59.45,0,0,1-33.2-2.2c-5.67-2.14-11.21-4.37-16.7-6.63-8.71-3.58-17.93-3.59-27.23-.84a92.33,92.33,0,0,0-11.56,4.46c-10.29,4.61-21.86,7.56-36,6.1a74,74,0,0,1-15.07-3.55c-5.68-1.86-10.76-4.17-16-6.32-8.19-3.32-16.82-3.35-25.59-.74-4.31,1.28-8.28,2.84-12.45,4.25a9.18,9.18,0,0,1-7.26-.17c-2.22-1.15-2.22-2.51.08-3.54C111,228,120.88,224.77,133.59,224.43Z" transform="translate(0 0.24)"/>
    <path class="cls-3" d="M276.8,263.44c-5.24.18-10.77-1.34-15.78-3.56-4.53-2-8.79-4.2-13.28-6.23-8.15-3.66-15.16-3.88-23.83-.61a78.2,78.2,0,0,0-8.88,4.21c-8.93,4.65-18.94,7.41-31.06,5.65a44.81,44.81,0,0,1-10.45-3.07c-4.94-2-9.49-4.37-14.2-6.59-6.46-3.05-13.33-3.08-20.29-.77-3.52,1.16-6.8,2.59-10.09,4-2.85,1.2-5.55,1.28-7.16,0-2-1.61-.79-3,1.51-3.91a138.87,138.87,0,0,1,14.61-5.42,37.55,37.55,0,0,1,25.74,1.62c4.23,1.87,8.4,3.8,12.37,5.85,12.31,6.35,24.38,3.56,33.31-1.26a76.65,76.65,0,0,1,11.4-5.1c10.8-3.7,21.51-3.64,31.63,1,3.78,1.74,7.56,3.49,11.19,5.34,11.2,5.73,22,4.18,31.35-.27.58-.27,1.12-.56,1.65-.87a6.46,6.46,0,0,1,6.8-.22c2.32,1.41,1.32,2.81-.81,4C295.62,261,287.72,263.39,276.8,263.44Z" transform="translate(0 0.24)"/>
    <path class="cls-3" d="M299.78,221.38c-7.29.23-15-1.59-21.93-4.32-6.13-2.4-11.94-5-18.08-7.43-10.79-4.22-20-4.52-31.55-.82a119.33,119.33,0,0,0-12.92,5.31c-12.2,5.55-25.89,8.76-42.34,6.58a71.8,71.8,0,0,1-14.6-3.86c-6.45-2.31-12.36-5-18.5-7.57-8.94-3.7-18.43-3.73-28.05-.9-4.63,1.36-9,3-13.29,4.64-3.9,1.48-7.45,1.63-9.75.12-2.85-1.88-1.24-3.44,1.75-4.71,7.94-3.36,16.31-6.36,26.48-7.69a57.45,57.45,0,0,1,28.46,3.07c5.77,2.22,11.44,4.53,16.84,7,17,7.72,33.56,4.17,45.73-1.55a108.53,108.53,0,0,1,18.66-6.9c13.09-3.42,26.23-3.07,38.27,1.64,5.61,2.19,11.17,4.43,16.46,6.82,15.4,7,30.28,5,43.05-.38.78-.33,1.51-.69,2.23-1a9.62,9.62,0,0,1,8.87-.24c3,1.5,2.1,3.08-.45,4.58C327.83,218,313.18,221.36,299.78,221.38Z" transform="translate(0 0.24)"/>
    <path class="cls-3" d="M208.43,197.94c-1.45.46-2.65.86-3.86,1.23A3,3,0,0,1,200.9,198c-.93-1.38-.48-2.65.54-3.79l1.49-1.64c-2.6.4-5,.81-7.31,1.11-2.07.27-3.35-.5-3.78-2.11s.23-2.71,2.07-3.67c.6-.32,1.18-.67,1.94-1.1a9.44,9.44,0,0,1-3-.37,3.87,3.87,0,0,1-1.64-2c-.54-1.56.24-2.59,2.82-3.94l-1.33-.11A3,3,0,0,1,189.8,178a2.93,2.93,0,0,1,1.61-3.34c1.81-1.13,3.58-2.32,5.37-3.49.31-.2.59-.44,1.3-1-1.21-.16-1.91-.3-2.61-.33-1.61-.07-3-.52-3.52-2.22-.49-1.52.18-2.44,2-3.93,2-1.66,3.88-3.57,5.81-5.37l-.3-.39c-.3,0-.6,0-.9-.08-1.27-.2-2.39-.86-2.5-2.12a4.51,4.51,0,0,1,.86-3c1.53-1.9,3.33-3.58,5.12-5.44a5.33,5.33,0,0,0-.58-.34c-2.91-.91-3.4-3.32-1.25-5.49s3.91-4.22,5.82-6.38a2.28,2.28,0,0,0,.46-2.49,3.74,3.74,0,0,1,.35-2.28c1.41-3.45,2.93-6.86,4.33-10.32a3.12,3.12,0,0,1,6,0c1.43,3.5,3,7,4.39,10.47a3,3,0,0,1,.35,2,2.61,2.61,0,0,0,.64,3c1.64,1.9,3.25,3.84,5.06,5.57,2.81,2.69,2.54,4.76-1.26,6.27,1.52,1.62,2.93,3.21,4.42,4.71,1.05,1.06,2.12,2.07,1.61,3.73S230.5,158,228.88,158l-.28.4c2,1.83,3.86,3.75,5.94,5.44,1.25,1,2.35,2,1.92,3.68s-1.77,2.28-3.42,2.35a5.58,5.58,0,0,0-2.38.67c1.59,1.11,3.17,2.23,4.77,3.31.57.39,1.23.66,1.81,1a2.76,2.76,0,0,1,1.24,3.34,2.9,2.9,0,0,1-2.9,2.1,11,11,0,0,0-2.45.14,19.83,19.83,0,0,0,2,1.11,2.92,2.92,0,0,1,2.08,3.07,2.75,2.75,0,0,1-2.52,2.68,5.58,5.58,0,0,0-.69.25l.75.47c1.62,1,2.19,2.23,1.7,3.72a3,3,0,0,1-3.47,1.91c-2.43-.3-4.84-.72-7.58-1.13.6.65,1,1.15,1.48,1.63a3,3,0,0,1-2.93,5.05c-1.33-.36-2.62-.87-4-1.34M199.4,155c1.16-.11,2.42-.27,3.68-.34a12.55,12.55,0,0,1,1.93.15,8,8,0,0,1-.68,1.85,41.29,41.29,0,0,1-9.16,10.3,63.61,63.61,0,0,0,6.52-.37c.82-.07,1.65-.08,2.48-.12a13.27,13.27,0,0,1-1.17,2.32,31.11,31.11,0,0,1-9.41,8.4c2.3-.15,4.51-.58,6.73-.94a5.05,5.05,0,0,1,1.46.21c-.14.43-.16,1-.44,1.28-1.93,2-3.91,4-6,6.1,2.15-.68,4.35-1.39,6.56-2.06a4.31,4.31,0,0,1,1.19,0,4.52,4.52,0,0,1-.07,1.17,5.16,5.16,0,0,1-.67,1.09,20.11,20.11,0,0,1-6.9,6.54,28.07,28.07,0,0,0,9.92-2.38c1.46-.66,1.8-.43,1.65,1.18a4.64,4.64,0,0,1-.27,1.41c-.82,1.8-1.7,3.58-2.51,5.27,3.49-.64,6.3-2.77,8.68-5.53.87-1,1.43-1,2.45-.09a61.59,61.59,0,0,0,5.81,4.49,20.11,20.11,0,0,0,3.08,1.43l.25-.34a11,11,0,0,1-3.24-6.65,2.05,2.05,0,0,1,.35-1.42c.13-.16.87.08,1.28.26a28.48,28.48,0,0,0,9.87,2.35,19.69,19.69,0,0,1-6.94-6.75,7.21,7.21,0,0,1-.59-1.84,9.48,9.48,0,0,1,1.86.26c1.76.6,3.49,1.28,5.23,1.92-2-2.31-3.87-4.47-5.69-6.67a1.2,1.2,0,0,1-.16-1.11c.17-.23.73-.22,1.11-.21a5.3,5.3,0,0,1,.93.24l6.09,1c-1.79-1.61-3.68-2.77-5.28-4.23a47.6,47.6,0,0,1-4.49-5,5.74,5.74,0,0,1-.62-1.79,8.09,8.09,0,0,1,1.78.07,14.6,14.6,0,0,0,7.34.35c-4.2-2.84-7-6.6-9.63-10.54a4.92,4.92,0,0,1-.37-1.43,5.76,5.76,0,0,1,1.46-.23c1.42.11,2.83.31,4.29.49,0-.29,0-.43-.07-.49-.29-.32-.62-.59-.88-.93-2.47-3.21-4.95-6.42-7.36-9.67-.24-.33-.09-1-.13-1.43a7.22,7.22,0,0,1,1.33.15c1.24.39,2.46.84,3.68,1.26a4,4,0,0,0-1.09-1.52,32.47,32.47,0,0,1-6.68-9c-.52-1-.55-1.7.62-1.94l-4.36-10.32-4.38,10.36c1.52.15,1.07,1.06.58,2a31.34,31.34,0,0,1-6.84,9,9.59,9.59,0,0,1-1.19.81l.43.53c1.24-.46,2.47-.94,3.72-1.35a4.27,4.27,0,0,1,1.19-.05,4.59,4.59,0,0,1-.06,1.29,4.79,4.79,0,0,1-.77,1.4C204.42,148.46,202,151.67,199.4,155Zm14.83,38.73a5.32,5.32,0,0,0-2.92,5.09,26.12,26.12,0,0,1-.35,3c-.29,2.57-.57,5.15-.86,7.78h8.2c-.45-3.75-1-7.34-1.27-11C216.87,196.51,216.38,194.71,214.23,193.73Z" transform="translate(0 0.24)"/>
    <path class="cls-3" d="M229.85,129.91a13.14,13.14,0,0,0-2,.49c-1,.4-2,.42-2.41-.72s.49-1.72,1.43-2.1c4.72-1.94,10.58.3,13.18,5,2.95,5.34,1.38,12-3.52,15-1,.6-2,1.09-2.79-.13s.31-1.8,1.17-2.37a8,8,0,0,0,3.27-9.26A8.13,8.13,0,0,0,229.85,129.91Z" transform="translate(0 0.24)"/>
    <path class="cls-3" d="M228.88,121a4.32,4.32,0,0,1,.05-1.73,2.55,2.55,0,0,1,1.41-1.37c.39-.08,1.29.64,1.39,1.12a15.79,15.79,0,0,1,.24,4.12c0,.48-.85,1.29-1.26,1.26a2.24,2.24,0,0,1-1.52-1.2A6.57,6.57,0,0,1,229,121Z" transform="translate(0 0.24)"/>
    <path class="cls-3" d="M234.29,124.14a42.47,42.47,0,0,1,1.58-4.43,1.77,1.77,0,0,1,1.6-.59c.44.12,1.07.95,1,1.34a19.61,19.61,0,0,1-1.36,4.22,1.79,1.79,0,0,1-1.59.63C235,125.22,234.68,124.54,234.29,124.14Z" transform="translate(0 0.24)"/>
    <path class="cls-3" d="M240.83,128.37c-1.25.06-2.11-1.11-1.49-2a20.17,20.17,0,0,1,2.91-3.35,1.84,1.84,0,0,1,1.69.13,1.56,1.56,0,0,1,.42,1.47,43.83,43.83,0,0,1-3.07,3.62C241.17,128.35,240.91,128.35,240.83,128.37Z" transform="translate(0 0.24)"/>
    <path class="cls-3" d="M247.46,138.52a6.8,6.8,0,0,1-2.29-.05,2.21,2.21,0,0,1-1.18-1.39,1.71,1.71,0,0,1,1-1.3,16.11,16.11,0,0,1,4.1-.2c.48,0,1.28.91,1.23,1.31a2.36,2.36,0,0,1-1.28,1.45A3.94,3.94,0,0,1,247.46,138.52Z" transform="translate(0 0.24)"/>
    <path class="cls-3" d="M248.16,145.7a45.31,45.31,0,0,1-4.41-1.94,1.7,1.7,0,0,1-.34-1.64,1.75,1.75,0,0,1,1.51-.78,18.23,18.23,0,0,1,4,1.56,1.78,1.78,0,0,1,.53,1.6C249.29,145,248.62,145.29,248.16,145.7Z" transform="translate(0 0.24)"/>
    <path class="cls-3" d="M245.85,150.72c-.14.18-.34.74-.69.86a2.06,2.06,0,0,1-1.61-.06,22.52,22.52,0,0,1-3-2.9,1.61,1.61,0,0,1-.12-1.45,1.76,1.76,0,0,1,1.24-.78C242.69,146.27,245.87,149.47,245.85,150.72Z" transform="translate(0 0.24)"/>
    <path class="cls-3" d="M247.21,128.32c.53.41,1.17.68,1.33,1.11a1.68,1.68,0,0,1-.33,1.52,24.24,24.24,0,0,1-4.11,2c-.35.13-1.17-.34-1.37-.73a1.62,1.62,0,0,1,.2-1.55C244.25,129.78,245.69,129.12,247.21,128.32Z" transform="translate(0 0.24)"/>
    <path class="cls-3" d="M214.45,169.41c-1,.8-2.15,1.63-3.24,2.49-.8.63-1.65,1.21-2.53.27s-.19-1.67.47-2.47c1.27-1.55,2.38-3.23,3.62-4.81.36-.46,1-1,1.44-1s1,.59,1.4,1.06c1.23,1.57,2.33,3.24,3.59,4.78.61.74,1.35,1.36.58,2.33s-1.72.62-2.51-.05C216.18,171.07,215.15,170.06,214.45,169.41Z" transform="translate(0 0.24)"/>
    <path class="cls-3" d="M214.36,157.62c-.94.71-2.05,1.55-3.14,2.4-.8.63-1.64,1.22-2.53.29s-.21-1.67.45-2.47c1.27-1.55,2.38-3.24,3.62-4.81.37-.46,1-1,1.44-1s1.05.58,1.41,1.05c1.19,1.53,2.24,3.17,3.46,4.68.62.76,1.54,1.37.71,2.43s-1.8.55-2.63-.13C216.08,159.16,215.05,158.22,214.36,157.62Z" transform="translate(0 0.24)"/>
    <path class="cls-3" d="M214.37,181.36c-.94.71-2.05,1.54-3.14,2.4-.8.63-1.64,1.22-2.53.3s-.23-1.67.43-2.47c1.27-1.55,2.39-3.23,3.63-4.81.36-.46.94-1,1.43-1s1.05.58,1.41,1c1.19,1.53,2.25,3.17,3.47,4.68.61.76,1.54,1.36.72,2.43s-1.8.59-2.63-.11C216.07,182.88,215,181.92,214.37,181.36Z" transform="translate(0 0.24)"/>
    <path class="cls-3" d="M214.47,145.58l-3.34,2.64c-.81.64-1.68,1.13-2.51.14s-.13-1.6.48-2.36c1.29-1.6,2.43-3.33,3.71-4.94a2.34,2.34,0,0,1,1.49-.91,1.68,1.68,0,0,1,1.26,1,10.67,10.67,0,0,0,3.7,4.92c.69.58,1.23,1.28.56,2.2s-1.6.78-2.37.13C216.29,147.39,215.21,146.29,214.47,145.58Z" transform="translate(0 0.24)"/>
    <text class="cls-4" transform="translate(139.01 144.85) rotate(-74.84) scale(0.91 1)">L</text>
    <text class="cls-4" transform="translate(141.61 135.9) rotate(-69.59) scale(0.91 1)">I</text>
    <text class="cls-4" transform="translate(143.99 129.5) rotate(-63.49) scale(0.91 1)">T</text>
    <text class="cls-4" transform="matrix(0.51, -0.75, 0.83, 0.56, 149.34, 119.14)">T</text>
    <text class="cls-4" transform="matrix(0.6, -0.68, 0.75, 0.66, 156.12, 109.57)">L</text>
    <text class="cls-4" transform="matrix(0.69, -0.6, 0.66, 0.76, 162.19, 102.73)">E</text>
    <text class="cls-4" transform="matrix(0.76, -0.5, 0.55, 0.84, 172.08, 94.53)"> </text>
    <text class="cls-4" transform="translate(179.58 89.79) rotate(-26.65) scale(0.91 1)"> </text>
    <text class="cls-4" transform="translate(187.29 85.81) rotate(-17.49) scale(0.91 1)">A</text>
    <text class="cls-4" transform="translate(202.01 81.39) rotate(-5.58) scale(0.91 1)">D</text>
    <text class="cls-4" transform="translate(217.62 80.18) rotate(5.61) scale(0.91 1)">V</text>
    <text class="cls-4" transform="translate(231.21 81.75) rotate(15.77) scale(0.91 1)">E</text>
    <text class="cls-4" transform="translate(243.39 85.05) rotate(27.92) scale(0.91 1)">N</text>
    <text class="cls-4" transform="translate(260.37 94.75) rotate(39.21) scale(0.91 1)">T</text>
    <text class="cls-4" transform="matrix(0.6, 0.68, -0.75, 0.66, 269.33, 102.08)">U</text>
    <text class="cls-4" transform="translate(279.54 114.27) rotate(58.36) scale(0.91 1)">R</text>
    <text class="cls-4" transform="translate(285.92 124.92) rotate(66.69) scale(0.91 1)">E</text>
    <text class="cls-4" transform="translate(290.83 136.77) rotate(74.88) scale(0.91 1)">R</text>
    <text class="cls-4" transform="matrix(0.11, 0.9, -0.99, 0.12, 293.95, 148.8)">S</text></svg>