<?xml version="1.0" standalone="no"?>
<!DOCTYPE svg PUBLIC "-//W3C//DTD SVG 20010904//EN"
 "http://www.w3.org/TR/2001/REC-SVG-20010904/DTD/svg10.dtd">
<svg version="1.0" xmlns="http://www.w3.org/2000/svg"
 width="285.000000pt" height="285.000000pt" viewBox="0 0 285.000000 285.000000"
 preserveAspectRatio="xMidYMid meet">
<metadata>
Created by potrace 1.14, written by Peter Selinger 2001-2017
</metadata>
<g transform="translate(0.000000,285.000000) scale(0.100000,-0.100000)"
fill="#000000" stroke="none">
<path d="M1300 2844 c-378 -45 -672 -189 -917 -448 -192 -203 -322 -465 -368
-744 -26 -155 -17 -419 19 -562 135 -532 524 -921 1056 -1056 143 -36 407 -45
562 -19 298 49 557 183 774 399 278 279 417 613 417 1006 1 180 -17 293 -69
450 -118 354 -378 656 -708 822 -121 61 -272 112 -391 133 -90 16 -309 27
-375 19z m395 -108 c289 -65 548 -216 731 -426 334 -385 425 -903 242 -1382
-25 -67 -33 -78 -53 -78 -13 0 -44 -9 -70 -20 -26 -11 -85 -28 -132 -37 -112
-22 -181 -11 -343 55 -69 27 -149 57 -179 66 -78 23 -228 21 -322 -4 -41 -11
-77 -20 -80 -20 -4 0 -10 16 -13 35 -6 29 -11 35 -31 35 -28 0 -32 12 -11 29
11 9 17 8 28 -6 15 -21 83 -44 104 -36 17 6 18 35 2 51 -9 9 1 10 40 5 43 -5
53 -3 58 11 4 10 2 22 -4 28 -7 7 -7 16 1 29 9 14 9 24 0 37 -9 15 -7 21 8 30
28 18 23 38 -16 62 -39 24 -45 40 -15 40 39 0 35 30 -11 76 -28 29 -38 44 -27
44 32 0 30 32 -4 67 -30 31 -31 35 -15 44 24 14 22 22 -23 74 -22 25 -40 55
-40 66 0 11 -13 49 -30 85 -22 49 -34 65 -47 62 -20 -3 -59 -75 -69 -128 -3
-19 -24 -56 -45 -82 -43 -51 -46 -63 -24 -75 12 -7 10 -15 -16 -46 -32 -39
-33 -67 -2 -67 12 0 5 -12 -26 -44 -46 -46 -50 -76 -11 -76 30 0 24 -16 -15
-40 -37 -23 -46 -54 -19 -64 14 -5 14 -9 3 -22 -11 -14 -10 -19 8 -34 20 -15
20 -19 6 -33 -9 -9 -13 -23 -9 -33 5 -14 15 -16 56 -11 46 6 49 5 38 -12 -6
-10 -8 -26 -4 -36 6 -17 18 -17 79 1 15 5 17 -2 17 -44 0 -57 -4 -62 -83 -91
-151 -55 -273 -49 -443 24 -163 69 -223 85 -328 85 -97 0 -216 -24 -298 -59
l-48 -20 -19 37 c-27 53 -67 184 -88 282 -25 119 -25 391 1 509 56 263 168
477 345 664 199 209 460 350 746 402 104 19 400 14 500 -9z m-213 -1123 c-2
-7 13 -36 34 -64 32 -44 35 -51 16 -45 -31 10 -28 0 18 -61 40 -53 41 -53 15
-53 -36 0 -31 -20 18 -74 44 -47 44 -50 -5 -46 -39 2 -35 -11 17 -62 l44 -44
-34 4 c-42 5 -44 -3 -8 -40 l27 -28 -32 6 c-40 8 -40 -1 0 -43 35 -36 26 -40
-34 -19 -36 13 -38 12 -38 -6 0 -11 5 -28 10 -39 15 -27 0 -24 -47 11 -36 27
-42 28 -54 14 -15 -19 -69 -47 -76 -41 -2 3 0 14 6 25 6 12 11 28 11 36 0 13
-5 13 -41 1 -61 -22 -66 -19 -31 18 18 18 32 39 32 46 0 12 -8 11 -60 -7 -8
-3 1 11 19 31 l35 37 -34 0 -34 0 42 43 c23 23 42 46 42 50 0 4 -19 7 -42 8
-24 0 -37 3 -30 6 14 6 82 92 82 104 0 5 -11 9 -25 9 -26 0 -25 0 15 53 22 30
40 57 40 61 0 5 -12 5 -27 1 l-28 -7 26 29 c43 47 52 62 55 90 1 15 11 44 20
66 l18 39 21 -48 c12 -27 20 -55 17 -61z m-712 -800 c198 -81 228 -88 370 -87
137 1 191 15 395 100 85 36 96 39 195 39 l105 0 155 -62 c85 -33 182 -67 215
-73 74 -15 214 -7 314 18 39 10 71 17 71 14 0 -2 -20 -35 -45 -73 -37 -57 -49
-69 -71 -69 -15 0 -57 -11 -94 -24 -145 -53 -225 -46 -431 36 l-134 53 -125
-1 c-134 0 -126 2 -370 -90 -63 -23 -90 -28 -170 -28 -91 0 -101 3 -227 52
-73 29 -156 57 -185 63 -76 17 -203 6 -308 -27 -88 -27 -91 -27 -105 -8 -23
32 -74 118 -77 132 -2 8 23 22 67 38 129 46 167 54 250 51 69 -3 97 -11 205
-54z m63 -227 c159 -62 249 -80 363 -73 92 5 105 9 339 95 55 20 88 26 155 26
78 0 95 -4 204 -48 66 -26 145 -54 175 -62 78 -20 203 -18 291 5 41 11 76 19
77 17 1 -1 -28 -32 -65 -68 -87 -86 -171 -122 -282 -122 -69 0 -84 4 -192 53
-195 87 -284 90 -450 16 -140 -63 -160 -68 -238 -69 -70 0 -82 3 -186 51 -181
85 -237 90 -389 38 l-100 -34 -72 74 c-40 41 -73 78 -73 83 0 8 138 56 190 66
59 11 144 -5 253 -48z m117 -211 c217 -98 311 -100 511 -9 132 60 189 71 265
49 32 -9 88 -32 124 -50 96 -48 170 -67 245 -63 64 3 64 3 43 -14 -40 -31
-220 -116 -299 -142 -150 -48 -233 -60 -414 -61 -230 0 -386 34 -581 126 -95
45 -257 150 -246 160 9 9 120 47 152 53 48 8 106 -6 200 -49z"/>
<path d="M1343 2293 c-12 -4 -11 -74 3 -140 10 -50 114 -9 114 45 0 33 -21 82
-40 92 -20 10 -56 12 -77 3z m77 -21 c30 -25 34 -97 5 -118 -30 -22 -64 -18
-69 9 -9 41 -14 116 -8 122 11 11 51 4 72 -13z"/>
<path d="M1504 2288 c3 -7 12 -46 21 -85 10 -40 21 -73 26 -73 5 0 9 2 9 4 0
2 16 38 35 80 19 42 32 76 29 76 -3 0 -20 -32 -39 -72 l-33 -72 -11 40 c-6 22
-14 55 -17 72 -4 18 -10 35 -15 38 -5 3 -7 -1 -5 -8z"/>
<path d="M1661 2194 c-12 -42 -21 -77 -19 -79 8 -8 78 -22 73 -16 -2 5 -18 11
-34 14 -28 6 -29 8 -21 38 12 42 14 43 49 31 17 -6 31 -9 31 -6 0 3 -13 10
-30 15 -30 11 -38 31 -21 58 7 11 15 11 40 3 17 -6 31 -7 31 -3 0 7 -46 21
-70 21 -4 0 -17 -34 -29 -76z"/>
<path d="M1186 2238 c-3 -13 -5 -54 -4 -93 1 -38 3 -56 5 -38 3 26 10 34 39
43 31 11 36 9 55 -12 11 -12 17 -16 13 -8 -9 18 -94 130 -98 130 -2 0 -6 -10
-10 -22z m59 -68 c-3 -4 -16 -10 -30 -12 -22 -5 -25 -2 -25 23 0 55 10 63 36
28 13 -18 21 -35 19 -39z"/>
<path d="M1797 2149 c-22 -39 -37 -73 -34 -76 3 -3 22 26 42 63 l36 69 -5 -82
c-3 -45 -2 -84 3 -87 8 -5 86 132 79 140 -3 2 -19 -23 -37 -56 -18 -33 -33
-60 -34 -60 -1 0 -1 36 1 80 2 44 0 80 -4 80 -5 0 -26 -32 -47 -71z"/>
<path d="M2027 2099 l23 -25 -49 -59 c-27 -33 -48 -62 -45 -64 2 -2 5 -2 7 0
1 2 24 30 51 62 47 57 49 58 69 40 11 -10 17 -13 14 -6 -4 6 -26 26 -50 44
-32 25 -37 27 -20 8z"/>
<path d="M865 2080 l-29 -30 24 -27 c14 -16 38 -42 54 -60 l29 -32 34 26 c18
14 31 28 28 31 -3 3 -18 -7 -34 -22 l-29 -27 -22 31 -23 32 29 24 c16 13 25
23 20 24 -6 0 -21 -10 -34 -22 l-24 -23 -19 24 -20 24 28 29 c14 15 24 28 22
28 -3 0 -18 -13 -34 -30z"/>
<path d="M2082 1962 c-30 -28 -52 -57 -52 -69 0 -23 29 -53 52 -53 18 0 118
79 118 93 0 5 -23 -12 -51 -37 -52 -47 -76 -55 -97 -34 -21 21 -13 41 40 95
65 66 59 69 -10 5z"/>
<path d="M761 1974 c6 -15 105 -104 116 -104 12 0 53 43 53 56 0 5 -11 -4 -24
-21 l-24 -30 -62 55 c-35 30 -61 50 -59 44z"/>
<path d="M706 1915 c-9 -14 -23 -37 -32 -52 l-16 -28 21 23 20 23 61 -41 c34
-23 64 -40 66 -37 3 2 -22 22 -56 43 -61 40 -69 51 -48 72 6 6 9 14 6 17 -3 3
-13 -6 -22 -20z"/>
<path d="M2175 1814 c-70 -44 -81 -58 -23 -28 25 13 32 14 39 2 14 -21 11 -38
-12 -69 -11 -16 -16 -29 -11 -29 5 0 17 15 27 34 11 19 23 32 27 30 16 -10 58
26 58 49 -1 20 -21 58 -31 56 -2 0 -35 -20 -74 -45z m90 -9 c0 -25 -4 -31 -27
-33 -39 -5 -57 31 -26 53 33 23 53 15 53 -20z"/>
<path d="M621 1774 c-12 -26 -20 -48 -17 -51 2 -2 7 5 11 16 8 27 14 27 86
-10 34 -17 63 -29 65 -27 2 3 -28 19 -66 38 -61 30 -68 35 -59 53 6 10 9 20 7
23 -2 2 -14 -17 -27 -42z"/>
<path d="M1594 1746 c-8 -21 -1 -49 14 -54 8 -2 12 7 12 27 0 33 -17 51 -26
27z"/>
<path d="M1654 1715 c-12 -48 16 -45 31 3 5 16 2 22 -9 22 -9 0 -18 -11 -22
-25z"/>
<path d="M2295 1719 c-11 -5 -43 -19 -71 -31 l-51 -23 18 -40 c16 -33 17 -18
2 22 -3 6 9 19 26 27 37 19 41 20 41 3 0 -7 7 -22 16 -33 15 -18 15 -18 5 3
-17 34 -13 49 15 61 23 11 26 10 40 -23 8 -19 17 -35 19 -35 3 0 -2 16 -10 36
-8 20 -15 38 -15 40 0 6 -13 4 -35 -7z"/>
<path d="M1711 1689 c-19 -21 -20 -39 -2 -39 14 0 42 48 31 55 -5 3 -18 -4
-29 -16z"/>
<path d="M570 1667 c0 -8 140 -60 146 -55 2 3 -24 15 -58 28 -35 12 -69 25
-75 27 -7 3 -13 3 -13 0z"/>
<path d="M1578 1663 c-35 -9 -19 -30 22 -29 76 2 114 -74 65 -132 -31 -37 -25
-59 10 -36 29 19 49 74 40 113 -12 55 -84 100 -137 84z"/>
<path d="M1744 1636 c-10 -8 -16 -18 -12 -22 10 -9 58 12 58 26 0 14 -23 12
-46 -4z"/>
<path d="M704 1571 c-4 -18 -12 -35 -18 -37 -6 -2 -42 5 -80 16 -38 11 -65 16
-60 11 9 -8 122 -41 141 -41 13 0 38 68 29 77 -3 4 -9 -8 -12 -26z"/>
<path d="M2302 1570 c-86 -25 -95 -30 -44 -23 39 5 42 4 42 -18 0 -12 -12 -36
-27 -53 l-28 -29 35 24 c19 13 42 22 52 21 44 -8 70 34 52 82 -7 19 -3 19 -82
-4z m78 -24 c0 -49 -52 -60 -69 -14 -9 25 4 36 47 37 17 1 22 -5 22 -23z"/>
<path d="M1747 1574 c-11 -12 3 -24 29 -24 15 0 24 6 24 15 0 15 -40 21 -53 9z"/>
<path d="M1740 1510 c0 -14 39 -32 52 -24 7 5 5 11 -7 21 -22 15 -45 17 -45 3z"/>
<path d="M1712 1454 c4 -20 34 -41 44 -31 8 8 -24 47 -38 47 -5 0 -8 -7 -6
-16z"/>
<path d="M2346 1434 c-9 -8 -16 -26 -16 -38 0 -13 -7 -29 -16 -37 -23 -19 -48
0 -55 42 l-6 34 -2 -36 c-1 -44 18 -64 54 -55 16 4 27 15 31 34 10 46 13 52
29 58 24 10 47 -16 43 -47 -3 -16 -1 -26 4 -23 25 16 -5 84 -37 84 -7 0 -21
-7 -29 -16z"/>
<path d="M1411 1501 c-33 -47 -20 -71 19 -36 15 14 18 14 30 0 16 -19 40 -19
40 0 0 8 -4 15 -8 15 -5 0 -15 11 -22 25 -17 33 -34 32 -59 -4z"/>
<path d="M1411 1381 c-34 -47 -26 -65 16 -36 18 13 22 13 33 0 14 -17 40 -20
40 -5 0 17 -43 70 -56 70 -7 0 -22 -13 -33 -29z"/>
<path d="M1417 1268 c-39 -51 -34 -75 8 -44 17 12 22 12 39 0 45 -31 49 -5 7
45 l-28 34 -26 -35z"/>
<path d="M1417 1148 c-39 -51 -35 -75 7 -43 17 13 22 13 42 0 13 -8 26 -15 29
-15 13 0 2 29 -23 60 l-28 33 -27 -35z"/>
</g>
</svg>
